<svg width="638" height="287" viewBox="0 0 638 287" fill="none" xmlns="http://www.w3.org/2000/svg">
<path d="M15.1069 170H42.6943C44.9034 170 46.6943 171.791 46.6943 174V283C46.6943 285.209 44.9034 287 42.6943 287H15.1069V170Z" fill="#E5EAEE"/>
<rect y="140" width="19.2271" height="147" rx="4" fill="#FFA800"/>
<path d="M133.217 121H160.804C163.013 121 164.804 122.791 164.804 125V283C164.804 285.209 163.013 287 160.804 287H133.217V121Z" fill="#E5EAEE"/>
<rect x="118.11" y="90.9999" width="19.2271" height="196" rx="4" fill="#FFA800"/>
<path d="M251.325 69.9999H278.913C281.122 69.9999 282.913 71.7908 282.913 73.9999V283C282.913 285.209 281.122 287 278.913 287H251.325V69.9999Z" fill="#E5EAEE"/>
<rect x="236.219" y="40" width="19.2271" height="247" rx="4" fill="#FFA800"/>
<path d="M369.435 109.535H397.023C399.232 109.535 401.023 111.325 401.023 113.535V283C401.023 285.209 399.232 287 397.023 287H369.435V109.535Z" fill="#E5EAEE"/>
<rect x="354.328" y="79.9999" width="19.2271" height="207" rx="4" fill="#FFA800"/>
<path d="M487.544 78.6708H515.131C517.341 78.6708 519.131 80.4617 519.131 82.6708V283C519.131 285.209 517.341 287 515.131 287H487.544V78.6708Z" fill="#E5EAEE"/>
<rect x="472.437" y="49" width="19.2271" height="238" rx="4" fill="#FFA800"/>
<path d="M605.654 30H633.241C635.45 30 637.241 31.7908 637.241 34V283C637.241 285.209 635.45 287 633.241 287H605.654V30Z" fill="#E5EAEE"/>
<rect x="590.547" width="19.227" height="287" rx="4" fill="#FFA800"/>
</svg>
