<svg width="20" height="20" viewBox="0 0 20 20" fill="none" xmlns="http://www.w3.org/2000/svg">
<rect width="8.74989" height="8.74021" rx="1.5" fill="#6993FF"/>
<path opacity="0.3" fill-rule="evenodd" clip-rule="evenodd" d="M11.2499 1.55643C11.2499 0.696836 11.9467 0 12.8063 0H18.4433C19.3029 0 19.9998 0.696837 19.9998 1.55643V7.18378C19.9998 8.04337 19.3029 8.74021 18.4433 8.74021H12.8063C11.9467 8.74021 11.2499 8.04337 11.2499 7.18378V1.55643ZM0 12.7938C0 11.9342 0.696837 11.2374 1.55643 11.2374H7.19347C8.05306 11.2374 8.74989 11.9342 8.74989 12.7938V18.4212C8.74989 19.2808 8.05306 19.9776 7.19347 19.9776H1.55643C0.696836 19.9776 0 19.2808 0 18.4212V12.7938ZM12.8063 11.2374C11.9467 11.2374 11.2499 11.9342 11.2499 12.7938V18.4212C11.2499 19.2808 11.9467 19.9776 12.8063 19.9776H18.4433C19.3029 19.9776 19.9998 19.2808 19.9998 18.4212V12.7938C19.9998 11.9342 19.3029 11.2374 18.4433 11.2374H12.8063Z" fill="#6993FF"/>
</svg>
