<svg width="50" height="50" viewBox="0 0 50 50" fill="none" xmlns="http://www.w3.org/2000/svg">
<path d="M35.2602 8.12663V16.6683L25.0519 22.5016V10.6266L32.3436 6.45995C33.5936 5.83495 35.2602 6.66829 35.2602 8.12663ZM5.26025 28.1266L12.5519 32.2933L22.7602 26.4599L12.5519 20.6266L5.26025 24.7933C3.80192 25.6266 3.80192 27.5016 5.26025 28.1266ZM37.5519 41.0433V32.5016L27.3436 26.6683V38.5433L34.6353 42.7099C35.8853 43.3349 37.5519 42.5016 37.5519 41.0433Z" fill="#A1A5B7"/>
<path opacity="0.3" d="M17.7611 6.45995L25.0527 10.6266V22.5016L14.8444 16.6683V8.12663C14.8444 6.66829 16.5111 5.83495 17.7611 6.45995ZM15.4694 42.7099L22.7611 38.5433V26.6683L12.5527 32.5016V41.0433C12.5527 42.5016 14.2194 43.3349 15.4694 42.7099ZM44.8444 24.7933L37.5527 20.6266L27.3444 26.4599L37.5527 32.2933L44.8444 28.1266C46.3027 27.5016 46.3027 25.6266 44.8444 24.7933Z" fill="#A1A5B7"/>
</svg>
