<svg width="21" height="24" viewBox="0 0 21 24" fill="none" xmlns="http://www.w3.org/2000/svg">
<path d="M9.547 17.0846C10.1053 17.5313 10.8988 17.531 11.4568 17.084L19.8398 10.3679L20.4243 9.90212C21.1908 9.29127 21.1921 8.12685 20.4268 7.51437L11.4569 0.335028C10.8988 -0.111676 10.1055 -0.111676 9.54743 0.335028L0.57293 7.51802C-0.19085 8.12933 -0.191347 9.29096 0.571911 9.90293L1.15185 10.3679L9.547 17.0846Z" fill="#6993FF"/>
<path opacity="0.3" fill-rule="evenodd" clip-rule="evenodd" d="M11.4439 20.4009C10.8859 20.8476 10.0928 20.8476 9.53463 20.4011L2.05735 14.4188C1.553 14.0153 0.815685 14.1042 0.421781 14.6161C0.0331179 15.1212 0.127439 15.8457 0.632464 16.2344L9.56821 23.1124C10.1175 23.5352 10.8825 23.5353 11.4319 23.1126L20.3635 16.2403C20.8728 15.8485 20.9677 15.1177 20.5753 14.6088C20.1782 14.0936 19.4357 14.0045 18.9278 14.4109L11.4439 20.4009Z" fill="#6993FF"/>
</svg>
