<svg width="29" height="29" viewBox="0 0 29 29" fill="none" xmlns="http://www.w3.org/2000/svg">
<path d="M16.1858 29H12.8141C7.38986 29 2.97705 24.5871 2.97705 19.163V3.26907C2.97699 1.46648 4.44348 0 6.24606 0C8.04865 0 9.51514 1.46648 9.51514 3.26907V19.163C9.51514 20.982 10.995 22.4619 12.8141 22.4619H16.1858C18.0048 22.4619 19.4846 20.9821 19.4846 19.163C19.4846 17.344 18.0048 15.8641 16.1858 15.8641H14.5946C12.792 15.8641 11.3255 14.3976 11.3255 12.5951C11.3255 10.7925 12.792 9.32599 14.5946 9.32599H16.1858C21.6099 9.32599 26.0227 13.7389 26.0227 19.1629C26.0227 24.5871 21.6099 29 16.1858 29Z" fill="#FF3C3C"/>
<path d="M16.1857 9.32599H15.3677V15.8641H16.1857C18.0047 15.8641 19.4845 17.3439 19.4845 19.1629C19.4845 20.9819 18.0047 22.4619 16.1857 22.4619H15.3677V28.9999H16.1857C21.6098 28.9999 26.0226 24.5871 26.0226 19.1629C26.0226 13.7388 21.6098 9.32599 16.1857 9.32599Z" fill="#DA0806"/>
</svg>
