<svg width="122" height="112" viewBox="0 0 122 112" fill="none" xmlns="http://www.w3.org/2000/svg">
<path opacity="0.3" fill-rule="evenodd" clip-rule="evenodd" d="M8.73016 53.7837C8.11989 54.344 8.1199 55.2523 8.73016 55.8126L28.087 73.5827C28.6972 74.143 29.6867 74.143 30.2969 73.5827L49.6537 55.8126C50.264 55.2523 50.264 54.344 49.6537 53.7837L30.2969 36.0136C29.6866 35.4533 28.6972 35.4533 28.087 36.0136L8.73016 53.7837ZM69.7302 53.7837C69.1199 54.344 69.1199 55.2523 69.7302 55.8126L89.087 73.5827C89.6972 74.143 90.6866 74.143 91.2969 73.5827L110.654 55.8126C111.264 55.2523 111.264 54.344 110.654 53.7837L91.2969 36.0136C90.6866 35.4533 89.6972 35.4533 89.087 36.0136L69.7302 53.7837Z" fill="#F65464"/>
<path fill-rule="evenodd" clip-rule="evenodd" d="M39.2302 25.7837C38.6199 26.344 38.6199 27.2523 39.2302 27.8126L58.587 45.5827C59.1972 46.143 60.1867 46.143 60.7969 45.5827L80.1537 27.8126C80.764 27.2523 80.764 26.344 80.1537 25.7837L60.7969 8.01357C60.1867 7.45332 59.1972 7.45332 58.587 8.01356L39.2302 25.7837ZM39.2302 81.7837C38.6199 82.344 38.6199 83.2523 39.2302 83.8125L58.587 101.583C59.1972 102.143 60.1867 102.143 60.7969 101.583L80.1537 83.8125C80.764 83.2523 80.764 82.344 80.1537 81.7837L60.7969 64.0136C60.1867 63.4533 59.1972 63.4533 58.587 64.0136L39.2302 81.7837Z" fill="#F65464"/>
</svg>
