<svg width="20" height="20" viewBox="0 0 20 20" fill="none" xmlns="http://www.w3.org/2000/svg">
<path fill-rule="evenodd" clip-rule="evenodd" d="M9.99984 13.3334C7.69865 13.3334 5.83317 11.4679 5.83317 9.16669H4.1665C4.1665 12.1061 6.34064 14.5378 9.16855 14.9412C9.16719 14.9607 9.1665 14.9803 9.1665 15V17.5C9.1665 17.9603 9.5396 18.3334 9.99984 18.3334C10.4601 18.3334 10.8332 17.9603 10.8332 17.5V15C10.8332 14.9803 10.8325 14.9607 10.8311 14.9412C13.659 14.5378 15.8332 12.1061 15.8332 9.16669H14.1665C14.1665 11.4679 12.301 13.3334 9.99984 13.3334Z" fill="#FFA800"/>
<rect opacity="0.3" x="7.5" y="1.66669" width="5" height="10" rx="2.5" fill="#FFA800"/>
</svg>
