<svg width="50" height="50" viewBox="0 0 50 50" fill="none" xmlns="http://www.w3.org/2000/svg">
<path opacity="0.3" d="M8.44698 31.6629C17.3866 16.1837 28.2887 6.79827 43.6012 4.19619C43.9025 4.14243 44.2123 4.16227 44.5044 4.25402C44.7964 4.34577 45.0619 4.50671 45.2783 4.72315C45.4948 4.93959 45.6557 5.20512 45.7475 5.49714C45.8392 5.78916 45.8591 6.09902 45.8053 6.40036C43.2032 21.7129 33.8178 32.6149 18.3386 41.5545L8.44698 31.6629ZM7.9574 36.1191L5.48656 42.6004C5.38455 42.8678 5.3621 43.159 5.4219 43.4389C5.48171 43.7189 5.62123 43.9755 5.82362 44.1779C6.02602 44.3803 6.28265 44.5198 6.56256 44.5796C6.84247 44.6394 7.13371 44.617 7.40114 44.5149L13.8866 42.042L7.9574 36.1191ZM34.3761 12.4962C33.7581 12.4962 33.1539 12.6795 32.64 13.0228C32.1261 13.3662 31.7256 13.8543 31.489 14.4253C31.2525 14.9963 31.1906 15.6247 31.3112 16.2308C31.4318 16.837 31.7294 17.3939 32.1664 17.8309C32.6035 18.2679 33.1603 18.5656 33.7665 18.6861C34.3727 18.8067 35.001 18.7448 35.572 18.5083C36.1431 18.2718 36.6311 17.8712 36.9745 17.3573C37.3179 16.8434 37.5011 16.2393 37.5011 15.6212C37.5011 14.7924 37.1719 13.9975 36.5859 13.4115C35.9998 12.8254 35.205 12.4962 34.3761 12.4962Z" fill="#A1A5B7"/>
<path d="M8.44615 31.6628L4.68157 27.8982C4.48952 27.7061 4.34457 27.4722 4.25807 27.2148C4.17158 26.9574 4.14588 26.6834 4.18302 26.4144C4.22015 26.1453 4.31911 25.8886 4.47211 25.6642C4.62511 25.4398 4.82801 25.2539 5.0649 25.1211L19.0691 17.269C14.9447 21.6077 11.3763 26.4427 8.44615 31.6628ZM18.3336 41.5503L22.0982 45.3148C22.2903 45.5069 22.5242 45.6518 22.7816 45.7383C23.039 45.8248 23.313 45.8505 23.582 45.8134C23.8511 45.7763 24.1078 45.6773 24.3322 45.5243C24.5566 45.3713 24.7425 45.1684 24.8753 44.9315L32.7274 30.9253C28.3893 35.0509 23.5542 38.62 18.3336 41.5503ZM14.667 37.8815L26.2149 26.3336C26.5375 25.9913 26.714 25.5368 26.7071 25.0665C26.7001 24.5963 26.5102 24.1472 26.1776 23.8146C25.845 23.482 25.396 23.2921 24.9257 23.2852C24.4554 23.2782 24.0009 23.4548 23.6586 23.7773L12.1107 35.3253L14.667 37.8815Z" fill="#A1A5B7"/>
</svg>
