<svg width="81" height="78" viewBox="0 0 81 78" fill="none" xmlns="http://www.w3.org/2000/svg">
<path opacity="0.3" fill-rule="evenodd" clip-rule="evenodd" d="M43.6667 54.404L57 36.2693H47V18.1347L27 45.3367H37V54.404H13.5C11.0147 54.404 9 52.3742 9 49.8703V4.53367C9 2.02979 11.0147 0 13.5 0H67.5C69.9853 0 72 2.02979 72 4.53367V49.8703C72 52.3742 69.9853 54.404 67.5 54.404H43.6667Z" fill="#1BC5BC"/>
<path fill-rule="evenodd" clip-rule="evenodd" d="M30.6193 40.4144L27 45.337H37V63.4717L57 36.2697H56.0769L77.4326 20.7307C78.44 19.9977 79.8465 20.2263 80.574 21.2412C80.851 21.6275 81 22.0919 81 22.5684V68.0054C81 73.0131 76.9706 77.0727 72 77.0727H9C4.02944 77.0727 0 73.0131 0 68.0054V22.5684C0 21.3165 1.00736 20.3016 2.25 20.3016C2.72298 20.3016 3.18392 20.4518 3.56735 20.7307L30.6193 40.4144Z" fill="#1BC5BC"/>
</svg>
