<svg width="28" height="28" viewBox="0 0 28 28" fill="none" xmlns="http://www.w3.org/2000/svg">
<path d="M9.3226 28C5.81286 28 2.95752 25.1447 2.95752 21.6349V10.7345C2.95752 4.81545 7.77292 0 13.692 0H14.3077C20.2267 0 25.0422 4.81545 25.0422 10.7345C25.0422 16.1662 20.9929 20.7001 15.6877 21.3807V21.6349C15.6877 25.1447 12.8323 28 9.3226 28Z" fill="#FF3C3C"/>
<path d="M14.3078 0H14V25.9471C15.0471 24.8123 15.6878 23.2971 15.6878 21.6349V21.3807C20.993 20.7001 25.0424 16.1662 25.0424 10.7345C25.0423 4.81545 20.2269 0 14.3078 0Z" fill="#DA0806"/>
<path d="M14.3078 3.27289H13.692C9.57778 3.27289 6.23047 6.62026 6.23047 10.7345V21.6347C6.23047 23.3399 7.61745 24.7269 9.32272 24.7269C11.0274 24.7269 12.4144 23.3399 12.4144 21.6347V18.1961H14.3077C18.422 18.1961 21.7693 14.8487 21.7693 10.7345C21.7693 6.62031 18.422 3.27289 14.3078 3.27289ZM14.3078 13.6607H11.5898C11.1347 13.6607 10.7652 13.2919 10.7652 12.8361V10.7345C10.7652 9.12041 12.078 7.80763 13.692 7.80763H14.3078C15.9218 7.80763 17.2346 9.12041 17.2346 10.7345C17.2346 12.348 15.9218 13.6607 14.3078 13.6607Z" fill="white"/>
<path d="M14.3078 3.27289H14V7.80769H14.3078C15.9219 7.80769 17.2347 9.12046 17.2347 10.7345C17.2347 12.348 15.9219 13.6608 14.3078 13.6608H14V18.1961H14.3078C18.4221 18.1961 21.7694 14.8488 21.7694 10.7346C21.7694 6.62036 18.4221 3.27289 14.3078 3.27289Z" fill="#DCE1EB"/>
</svg>
