<svg width="29" height="29" viewBox="0 0 29 29" fill="none" xmlns="http://www.w3.org/2000/svg">
<g clip-path="url(#clip0_197_459)">
<path d="M20.3233 14.576L25.3861 8.21048C27.068 6.05287 26.7453 2.82487 24.4688 1.05796C22.2092 -0.675024 19.032 -0.216251 17.3331 1.97534C17.1972 2.1283 13.2898 7.02128 12.78 7.6329C12.763 7.66693 12.7459 7.68381 12.7459 7.68381V5.10146C12.7459 2.29814 10.4524 0.00461243 7.6491 0.00461243C4.84577 0.00461243 2.55225 2.29814 2.55225 5.10146V23.9032C2.55225 26.7064 4.84577 29 7.6491 29C10.4524 29 12.7459 26.7064 12.7459 23.9032V21.3717C12.882 21.5416 17.316 27.0179 17.3331 27.0179C19.083 29.2435 22.2432 29.6513 24.4688 27.9183C26.7623 26.1344 27.051 23.0027 25.3861 20.8281L20.3233 14.576Z" fill="#7FE881"/>
<path d="M25.3862 20.8281C27.0511 23.0027 26.7625 26.1344 24.4689 27.9183C22.2434 29.6513 19.0832 29.2435 17.3332 27.0179C17.3162 27.0179 12.8822 21.5416 12.7461 21.3717V7.68381C12.7461 7.68381 12.7631 7.66693 12.7801 7.6329C13.2899 7.02128 17.1973 2.1283 17.3332 1.97534C19.0322 -0.216251 22.2094 -0.675024 24.4689 1.05796C26.7454 2.82481 27.0681 6.05287 25.3862 8.21048L20.3234 14.576L25.3862 20.8281Z" fill="#5BC980"/>
</g>
<defs>
<clipPath id="clip0_197_459">
<rect width="29" height="29" fill="white"/>
</clipPath>
</defs>
</svg>
