<svg width="48" height="48" viewBox="0 0 48 48" fill="none" xmlns="http://www.w3.org/2000/svg">
<path opacity="0.3" fill-rule="evenodd" clip-rule="evenodd" d="M8 8L23.6314 5.06911C23.875 5.02343 24.125 5.02343 24.3686 5.06911L40 8V29.9033C40 33.696 38.0462 37.2211 34.83 39.2313L24.53 45.6687C24.2057 45.8714 23.7943 45.8714 23.47 45.6687L13.17 39.2313C9.95382 37.2211 8 33.696 8 29.9033L8 8Z" fill="#B5B5C3"/>
<path fill-rule="evenodd" clip-rule="evenodd" d="M22.3501 29.5C21.8709 29.5 21.3918 29.3083 21.0084 28.925L17.1751 25.0917C16.4084 24.325 16.4084 23.175 17.1751 22.4083C17.9418 21.6417 19.1876 21.6417 19.8584 22.4083L22.3501 24.9L28.6751 18.575C29.4418 17.8083 30.5918 17.8083 31.3584 18.575C32.1251 19.3417 32.1251 20.4917 31.3584 21.2583L23.6918 28.925C23.3084 29.3083 22.8293 29.5 22.3501 29.5Z" fill="#B5B5C3"/>
</svg>
