<svg width="29" height="29" viewBox="0 0 29 29" fill="none" xmlns="http://www.w3.org/2000/svg">
<g clip-path="url(#clip0_197_474)">
<path d="M21.508 14.984H16.4381C16.2031 14.984 16.0126 14.7934 16.0126 14.5584V13.7553C16.0126 13.6307 16.0671 13.5124 16.1619 13.4315C16.6539 13.0119 16.936 12.4009 16.936 11.7552C16.936 10.5408 15.948 9.55275 14.7336 9.55275C13.5192 9.55275 12.5312 10.5408 12.5312 11.7552C12.5312 12.3692 12.7778 12.9392 13.2256 13.3601C13.3112 13.4406 13.3596 13.5528 13.3596 13.6703V14.5585C13.3596 14.7935 13.1691 14.984 12.9341 14.984H7.49199C7.25695 14.984 7.06641 14.7935 7.06641 14.5585V0.425589C7.06641 0.190543 7.25695 0 7.49199 0H21.508C21.7431 0 21.9336 0.190486 21.9336 0.425589V4.20481H22.1912C22.7547 3.67615 23.5064 3.37631 24.282 3.37631C25.9658 3.37631 27.3356 4.74616 27.3356 6.42992C27.3356 8.11368 25.9658 9.48353 24.282 9.48353C23.4544 9.48353 22.6679 9.14927 22.0943 8.56002H21.9335V14.5585C21.9335 14.7935 21.7431 14.984 21.508 14.984Z" fill="#FF7C48"/>
<path d="M24.2819 3.37631C23.5062 3.37631 22.7545 3.67615 22.191 4.20481H21.9334V0.425589C21.9334 0.190543 21.7429 0 21.5078 0H14.7334V9.55275C15.9478 9.55275 16.9358 10.5408 16.9358 11.7552C16.9358 12.4009 16.6537 13.0119 16.1618 13.4315C16.067 13.5124 16.0124 13.6307 16.0124 13.7553V14.5584C16.0124 14.7934 16.2029 14.984 16.438 14.984H21.5078C21.7429 14.984 21.9334 14.7934 21.9334 14.5584V8.55996H22.0942C22.6678 9.14922 23.4543 9.48347 24.2819 9.48347C25.9657 9.48347 27.3355 8.11362 27.3355 6.42986C27.3355 4.7461 25.9656 3.37631 24.2819 3.37631Z" fill="#FF415B"/>
<path d="M21.5082 29.0001H7.49217C7.25712 29.0001 7.06658 28.8096 7.06658 28.5745V23.6966H6.90592C6.33225 24.2858 5.54581 24.62 4.71816 24.62C3.0344 24.62 1.66455 23.2502 1.66455 21.5665C1.66455 19.8827 3.0344 18.5129 4.71816 18.5129C5.49388 18.5129 6.24557 18.8127 6.80903 19.3413H7.06658V14.5584C7.06658 14.3234 7.25712 14.1328 7.49217 14.1328H12.5086V13.8461C11.98 13.2826 11.6802 12.5309 11.6802 11.7552C11.6802 10.0715 13.05 8.7016 14.7338 8.7016C16.4175 8.7016 17.7874 10.0715 17.7874 11.7552C17.7874 12.5829 17.4531 13.3694 16.8639 13.943V14.1329H21.5082C21.7432 14.1329 21.9338 14.3234 21.9338 14.5585V19.767C21.9338 20.002 21.7432 20.1925 21.5082 20.1925H20.6492C20.5318 20.1925 20.4195 20.144 20.3391 20.0585C19.9182 19.6107 19.3482 19.3642 18.7342 19.3642C17.5198 19.3642 16.5317 20.3522 16.5317 21.5666C16.5317 22.781 17.5198 23.769 18.7342 23.769C19.3799 23.769 19.9909 23.4868 20.4105 22.9949C20.4914 22.9001 20.6097 22.8455 20.7343 22.8455H21.5081C21.7432 22.8455 21.9337 23.036 21.9337 23.2711V28.5746C21.9337 28.8096 21.7432 29.0001 21.5082 29.0001Z" fill="#8EE16A"/>
<path d="M18.7339 19.3641C19.3479 19.3641 19.9179 19.6107 20.3388 20.0584C20.4192 20.144 20.5315 20.1925 20.6489 20.1925H21.5079C21.7429 20.1925 21.9335 20.002 21.9335 19.7669V14.5584C21.9335 14.3234 21.7429 14.1328 21.5079 14.1328H16.8636V13.9429C17.4528 13.3693 17.787 12.5828 17.787 11.7552C17.787 10.0714 16.4172 8.70154 14.7334 8.70154V29H21.5078C21.7429 29 21.9334 28.8095 21.9334 28.5744V23.2709C21.9334 23.0358 21.7429 22.8453 21.5078 22.8453H20.734C20.6094 22.8453 20.4911 22.8999 20.4102 22.9947C19.9906 23.4866 19.3796 23.7687 18.7339 23.7687C17.5195 23.7687 16.5315 22.7808 16.5315 21.5664C16.5315 20.3521 17.5195 19.3641 18.7339 19.3641Z" fill="#00CAB1"/>
</g>
<defs>
<clipPath id="clip0_197_474">
<rect width="29" height="29" fill="white"/>
</clipPath>
</defs>
</svg>
