<svg width="50" height="50" viewBox="0 0 50 50" fill="none" xmlns="http://www.w3.org/2000/svg">
<path opacity="0.3" d="M43.7498 22.3317H6.24984C4.99984 22.3317 4.1665 23.1651 4.1665 24.4151C4.1665 25.6651 4.99984 26.4984 6.24984 26.4984H12.4998V30.6651C12.4998 37.5401 18.1248 43.1651 24.9998 43.1651C31.8748 43.1651 37.4998 37.5401 37.4998 30.6651V26.4984H43.7498C44.9998 26.4984 45.8332 25.6651 45.8332 24.4151C45.8332 23.1651 44.9998 22.3317 43.7498 22.3317Z" fill="#A1A5B7"/>
<path d="M24.1665 45.665C23.7499 45.665 23.3332 45.4566 22.9165 45.2483C22.0832 44.6233 21.8748 43.1649 22.4998 42.3315C24.3748 39.8315 25.6248 37.1232 26.4582 33.9982C26.6665 32.9565 27.9165 32.1233 28.9582 32.54C29.9998 32.7483 30.8332 33.9982 30.4165 35.0399C29.5832 38.5815 27.9165 41.9149 25.8332 44.8316C25.4165 45.2482 24.7915 45.665 24.1665 45.665ZM18.1248 41.0816C21.2498 37.7483 22.9165 33.1649 22.9165 28.5816V18.1649C22.9165 16.9149 23.7498 16.0816 24.9998 16.0816C26.2498 16.0816 27.0832 16.9149 27.0832 18.1649V27.1232C27.0832 28.3732 27.9165 29.2066 29.1665 29.2066C30.4165 29.2066 31.2498 28.3732 31.2498 27.1232V18.1649C31.2498 14.6233 28.5415 11.9149 24.9998 11.9149C21.4582 11.9149 18.7498 14.6233 18.7498 18.1649V28.5816C18.7498 32.1233 17.4998 35.6649 14.9998 38.1649C14.1665 38.9982 14.3748 40.2483 15.2082 41.0816C15.6248 41.4983 16.0415 41.7066 16.6665 41.7066C17.2915 41.7066 17.7082 41.4983 18.1248 41.0816ZM12.4998 34.8316C13.5415 34.8316 14.5832 33.7899 14.5832 32.7483V18.1649C14.5832 16.9149 14.7915 15.665 15.2082 14.415C15.6248 13.3733 14.9998 12.1233 13.9582 11.7066C12.9165 11.29 11.6665 11.9149 11.2498 12.9566C10.6248 14.6233 10.4165 16.2899 10.4165 18.1649V32.7483V32.9565C10.4165 33.9982 11.4582 34.8316 12.4998 34.8316ZM18.7498 9.8316C19.7915 8.99826 21.0415 8.58162 22.2915 8.16496C23.3332 7.95662 23.9582 6.7066 23.7498 5.66493C23.5415 4.62326 22.2915 3.99824 21.2498 4.20657C19.5832 4.62324 17.9165 5.45665 16.4582 6.49832C15.6248 7.12332 15.4165 8.58157 16.0415 9.41491C16.4582 10.0399 17.0832 10.2483 17.7082 10.2483C17.9165 10.2483 18.3332 10.0399 18.7498 9.8316ZM37.9165 39.415C38.9582 35.8733 39.5832 32.3316 39.5832 28.5816V18.1649C39.5832 11.9149 35.6248 6.49832 29.7915 4.41498C28.7498 3.99832 27.4998 4.62326 27.0832 5.66493C26.6665 6.7066 27.2915 7.95657 28.3332 8.37324C32.4999 9.83157 35.4165 13.7899 35.4165 18.1649V28.5816C35.4165 31.9149 34.9998 35.0399 33.9582 38.1649C33.5415 39.2065 34.1665 40.4566 35.2082 40.8733C35.4165 40.8733 35.6248 40.8733 35.8332 40.8733C36.8748 40.8733 37.4998 40.2483 37.9165 39.415Z" fill="#A1A5B7"/>
</svg>
