<svg width="22" height="22" viewBox="0 0 22 22" fill="none" xmlns="http://www.w3.org/2000/svg">
<path opacity="0.3" fill-rule="evenodd" clip-rule="evenodd" d="M3.6665 3.66666L10.6313 2.36077C10.8749 2.31509 11.1248 2.31509 11.3684 2.36077L18.3332 3.66666V10.4033C18.3332 14.196 16.3794 17.7211 13.1632 19.7313L11.5298 20.7521C11.2056 20.9547 10.7941 20.9547 10.4698 20.7521L8.83652 19.7313C5.62032 17.7211 3.6665 14.196 3.6665 10.4033L3.6665 3.66666Z" fill="#6993FF"/>
<path fill-rule="evenodd" clip-rule="evenodd" d="M10.2438 13.5208C10.0242 13.5208 9.80458 13.433 9.62888 13.2573L7.87194 11.5003C7.52055 11.149 7.52055 10.6219 7.87194 10.2705C8.22333 9.9191 8.79434 9.9191 9.1018 10.2705L10.2438 11.4125L13.1428 8.51354C13.4942 8.16215 14.0212 8.16215 14.3726 8.51354C14.724 8.86493 14.724 9.39201 14.3726 9.7434L10.8587 13.2573C10.6831 13.433 10.4634 13.5208 10.2438 13.5208Z" fill="#6993FF"/>
</svg>
