<svg width="20" height="20" viewBox="0 0 20 20" fill="none" xmlns="http://www.w3.org/2000/svg">
<rect opacity="0.3" width="9.99988" height="19.9776" fill="#4A4B68"/>
<path fill-rule="evenodd" clip-rule="evenodd" d="M17.4998 2.4972H13.7498C13.7498 2.4972 12.4998 2.28298 12.4998 1.2486C12.4998 0.214227 13.7498 0 13.7498 0H19.9998V6.24301C19.9998 6.24301 19.9998 7.49161 18.7498 7.49161C17.4998 7.49161 17.4998 6.24301 17.4998 6.24301V2.4972ZM6.24992 17.4804H2.49997V13.7346C2.49997 13.7346 2.49997 12.486 1.24998 12.486C0 12.486 0 13.7346 0 13.7346V19.9776H6.24992C6.24992 19.9776 7.49991 19.7634 7.49991 18.729C7.49991 17.6946 6.24992 17.4804 6.24992 17.4804ZM17.4998 13.7346V17.4804H13.7498C13.7498 17.4804 12.4998 17.4804 12.4998 18.729C12.4998 19.9776 13.7498 19.9776 13.7498 19.9776H19.9998V13.7346C19.9998 13.7346 19.7853 12.486 18.7498 12.486C17.7142 12.486 17.4998 13.7346 17.4998 13.7346ZM2.49997 6.24301V2.4972H6.24992C6.24992 2.4972 7.49991 2.4972 7.49991 1.2486C7.49991 0 6.24992 0 6.24992 0H0V6.24301C0 6.24301 0.214463 7.49161 1.24998 7.49161C2.28551 7.49161 2.49997 6.24301 2.49997 6.24301Z" fill="#4A4B68"/>
</svg>
