<svg width="20" height="20" viewBox="0 0 20 20" fill="none" xmlns="http://www.w3.org/2000/svg">
<path fill-rule="evenodd" clip-rule="evenodd" d="M4.3335 2.5C3.78121 2.5 3.3335 2.94772 3.3335 3.5V16.5C3.3335 17.0523 3.78121 17.5 4.3335 17.5H4.83349C5.38578 17.5 5.83349 17.0523 5.83349 16.5V3.5C5.83349 2.94772 5.38578 2.5 4.8335 2.5H4.3335ZM8.50016 2.5C7.94788 2.5 7.50016 2.94772 7.50016 3.5V16.5C7.50016 17.0523 7.94788 17.5 8.50016 17.5H9.00016C9.55245 17.5 10.0002 17.0523 10.0002 16.5V3.5C10.0002 2.94772 9.55245 2.5 9.00016 2.5H8.50016Z" fill="#8950FC"/>
<rect opacity="0.3" x="11.231" y="3.27014" width="2.5" height="15" rx="1" transform="rotate(-19 11.231 3.27014)" fill="#8950FC"/>
</svg>
