<svg width="50" height="50" viewBox="0 0 50 50" fill="none" xmlns="http://www.w3.org/2000/svg">
<path opacity="0.3" d="M22.9165 13.5417C22.9165 18.75 18.7498 22.9167 13.5415 22.9167C8.33317 22.9167 4.1665 18.75 4.1665 13.5417C4.1665 8.33333 8.33317 4.16666 13.5415 4.16666C18.7498 4.16666 22.9165 8.33333 22.9165 13.5417ZM36.4582 4.16666C31.2498 4.16666 27.0832 8.33333 27.0832 13.5417C27.0832 18.75 31.2498 22.9167 36.4582 22.9167C41.6665 22.9167 45.8332 18.75 45.8332 13.5417C45.8332 8.33333 41.6665 4.16666 36.4582 4.16666ZM13.5415 27.0833C8.33317 27.0833 4.1665 31.25 4.1665 36.4583C4.1665 41.6667 8.33317 45.8333 13.5415 45.8333C18.7498 45.8333 22.9165 41.6667 22.9165 36.4583C22.9165 31.25 18.7498 27.0833 13.5415 27.0833ZM36.4582 27.0833C31.2498 27.0833 27.0832 31.25 27.0832 36.4583C27.0832 41.6667 31.2498 45.8333 36.4582 45.8333C41.6665 45.8333 45.8332 41.6667 45.8332 36.4583C45.8332 31.25 41.6665 27.0833 36.4582 27.0833Z" fill="#A1A5B7"/>
<path d="M36.459 33.3332C36.2507 33.3332 36.459 33.3332 36.459 33.3332L34.7924 31.8748C33.5424 30.6248 32.709 28.9581 32.5007 27.2914C32.2923 25.8331 32.2923 24.1665 32.5007 22.4998C32.709 20.8331 33.5424 19.1664 34.7924 17.9164L36.2507 16.4582H36.459C38.1257 16.4582 39.584 14.9999 39.584 13.3332C39.584 11.6665 38.1257 10.2082 36.459 10.2082C34.7923 10.2082 33.334 11.6665 33.334 13.3332V13.5415L31.8756 14.9999C30.6256 16.2499 28.959 17.0831 27.2923 17.2915C25.834 17.4998 24.1673 17.4998 22.5006 17.2915C20.834 17.0831 19.1673 16.2499 17.9173 14.9999L16.459 13.5415V13.3332C16.459 11.6665 15.0007 10.2082 13.334 10.2082C11.6673 10.2082 10.209 11.6665 10.209 13.3332C10.209 14.9999 11.6673 16.4582 13.334 16.4582H13.5423L15.0007 17.9164C16.2507 19.1664 17.084 20.8331 17.2923 22.4998C17.5006 23.9581 17.5006 25.6248 17.2923 27.2914C17.084 28.9581 16.2507 30.6248 15.0007 31.8748L13.5423 33.3332H13.334C11.6673 33.3332 10.209 34.7915 10.209 36.4582C10.209 38.1248 11.6673 39.5832 13.334 39.5832C15.0007 39.5832 16.459 38.1248 16.459 36.4582V36.2499L17.9173 34.7915C19.1673 33.5415 20.834 32.7081 22.5006 32.4998C23.959 32.2914 25.6257 32.2914 27.2923 32.4998C28.959 32.7081 30.6256 33.5415 31.8756 34.7915L33.334 36.2499V36.4582C33.334 38.1248 34.7923 39.5832 36.459 39.5832C38.1257 39.5832 39.584 38.1248 39.584 36.4582C39.584 34.7915 38.1257 33.3332 36.459 33.3332Z" fill="#A1A5B7"/>
</svg>
