<svg width="105" height="108" viewBox="0 0 105 108" fill="none" xmlns="http://www.w3.org/2000/svg">
<path opacity="0.3" fill-rule="evenodd" clip-rule="evenodd" d="M39.375 49.5C29.71 49.5 21.875 41.4411 21.875 31.5C21.875 21.5589 29.71 13.5 39.375 13.5C49.04 13.5 56.875 21.5589 56.875 31.5C56.875 41.4411 49.04 49.5 39.375 49.5ZM79.75 49.5C79.1977 49.5 78.75 49.0523 78.75 48.5V36H66.625C66.0727 36 65.625 35.5523 65.625 35V28C65.625 27.4477 66.0727 27 66.625 27H78.75V14.5C78.75 13.9477 79.1977 13.5 79.75 13.5H86.5C87.0523 13.5 87.5 13.9477 87.5 14.5V27H99.625C100.177 27 100.625 27.4477 100.625 28V35C100.625 35.5523 100.177 36 99.625 36H87.5V48.5C87.5 49.0523 87.0523 49.5 86.5 49.5H79.75Z" fill="#8A50FC"/>
<path d="M0.00285112 90.8964C1.69863 69.4193 18.6459 58.5 39.3021 58.5C60.2491 58.5 77.4589 68.8194 78.7409 90.9C78.792 91.7796 78.7409 94.5 75.4543 94.5C59.2424 94.5 35.1519 94.5 3.18282 94.5C2.08562 94.5 -0.0895202 92.0663 0.00285112 90.8964Z" fill="#8A50FC"/>
</svg>
